ply
format ascii 1.0
element vertex 32
property float x
property float y
property float z
property uchar red
property uchar green
property uchar blue
end_header
-176927 164973 315421 0 255 0
1.10917e+06 779789 431828 0 255 0
-323593 464334 113682 0 255 0
-1.79812e+06 672527 91038.5 0 255 0
319966 60054.7 173820 0 255 0
104962 112141 142824 0 255 0
71910.8 40345 482393 0 255 0
-1.06406 0.387983 7.53281 0 255 0
18623.3 -278132 -322277 0 255 0
45065.9 -19435.9 -3581.3 0 255 0
-1.04385 0.402497 7.53762 0 255 0
271603 165190 221555 0 255 0
-182203 167973 314875 0 255 0
-33253.7 14115.6 236913 0 255 0
-2.25607e+06 947210 59809.6 0 255 0
-69647.7 -25711.2 -1.05749e+06 187 178 156
-474515 -111176 -1.04445e+06 183 172 155
127854 89622.1 -1.34794e+06 190 180 158
188090 121852 -1.42711e+06 149 144 87
264606 218796 -1.73732e+06 156 152 98
723894 559006 183833 152 127 112
671776 13969.5 212573 187 187 136
551021 396489 42920.1 80 66 48
819047 402673 318439 142 132 100
354781 204606 103972 64 72 46
397177 228166 109638 61 68 43
1.10917e+06 779788 431828 190 184 152
-434035 137759 -1.31448e+06 194 184 174
-369300 230649 -1.37104e+06 194 185 174
194482 191029 -1.51899e+06 192 182 162
-1.25168e+06 686988 -147653 154 151 94
8.21288e+06 -2.65249e+06 -5.90466e+06 128 124 64
